<svg width="226" height="178" viewBox="0 0 226 178" fill="none" xmlns="http://www.w3.org/2000/svg">
<path d="M7.19466 64.5394C6.9402 64.4321 6.64697 64.5515 6.53971 64.8059L4.79194 68.9527C4.68468 69.2071 4.80402 69.5004 5.05848 69.6076C5.31295 69.7149 5.60618 69.5955 5.71343 69.3411L7.26701 65.6551L10.953 67.2087C11.2075 67.3159 11.5007 67.1966 11.6079 66.9421C11.7152 66.6877 11.5958 66.3944 11.3414 66.2872L7.19466 64.5394ZM207.503 63.5495C207.668 65.2124 207.757 66.8635 207.774 68.5011L208.774 68.4906C208.757 66.8236 208.666 65.1432 208.498 63.451L207.503 63.5495ZM207.002 78.3183C206.452 81.5737 205.616 84.7601 204.518 87.8641L205.46 88.1977C206.578 85.0411 207.428 81.7989 207.988 78.4849L207.002 78.3183ZM200.477 96.8766C198.914 99.7372 197.121 102.506 195.12 105.172L195.92 105.772C197.948 103.07 199.768 100.261 201.355 97.3561L200.477 96.8766ZM188.676 112.676C186.398 115.013 183.949 117.244 181.349 119.358L181.979 120.134C184.608 117.997 187.086 115.74 189.392 113.374L188.676 112.676ZM173.349 125.181C170.611 126.964 167.752 128.631 164.789 130.173L165.251 131.06C168.242 129.504 171.129 127.82 173.895 126.018L173.349 125.181ZM155.786 134.337C152.747 135.576 149.626 136.69 146.437 137.67L146.731 138.626C149.948 137.637 153.097 136.513 156.164 135.262L155.786 134.337ZM136.844 140.163C133.631 140.851 130.368 141.403 127.068 141.814L127.192 142.806C130.52 142.392 133.812 141.835 137.053 141.141L136.844 140.163ZM117.184 142.606C113.896 142.725 110.586 142.7 107.267 142.525L107.214 143.523C110.564 143.7 113.903 143.726 117.22 143.606L117.184 142.606ZM97.397 141.553C94.1441 141.082 90.8935 140.46 87.657 139.681L87.4228 140.653C90.6899 141.44 93.9708 142.068 97.2538 142.543L97.397 141.553ZM78.1395 136.909C75.0435 135.847 71.9713 134.63 68.9335 133.253L68.5206 134.164C71.5876 135.554 74.6893 136.783 77.8149 137.855L78.1395 136.909ZM60.1165 128.738C57.2884 127.117 54.5011 125.343 51.7638 123.412L51.1873 124.229C53.9503 126.178 56.7639 127.969 59.619 129.606L60.1165 128.738ZM43.9377 117.334C41.4651 115.227 39.0444 112.977 36.6834 110.578L35.9707 111.279C38.3521 113.699 40.7941 115.969 43.2891 118.095L43.9377 117.334ZM30.0272 103.221C27.9507 100.728 25.9319 98.1022 23.9768 95.3419L23.1607 95.9199C25.1307 98.7012 27.1653 101.347 29.2587 103.861L30.0272 103.221ZM18.5293 87.0182C16.8615 84.2589 15.2517 81.384 13.7045 78.3909L12.8162 78.8501C14.3733 81.8625 15.994 84.7568 17.6735 87.5355L18.5293 87.0182ZM9.43611 69.4636C8.76341 67.9401 8.10573 66.3895 7.46358 64.8117L6.53736 65.1886C7.18315 66.7754 7.84464 68.335 8.52133 69.8675L9.43611 69.4636ZM7.38887 64.0787C6.87994 63.8641 6.29348 64.1028 6.07897 64.6117L2.58341 72.9052C2.3689 73.4141 2.60757 74.0006 3.1165 74.2151C3.62543 74.4296 4.21189 74.1909 4.42639 73.682L7.53356 66.31L14.9055 69.4172C15.4144 69.6317 16.0009 69.393 16.2154 68.8841C16.4299 68.3752 16.1912 67.7887 15.6823 67.5742L7.38887 64.0787ZM207.005 63.5987C207.169 65.2471 207.257 66.8834 207.274 68.5063L209.274 68.4854C209.257 66.8036 209.165 65.1085 208.996 63.4018L207.005 63.5987ZM206.509 78.235C205.964 81.4612 205.136 84.6196 204.046 87.6973L205.932 88.3646C207.058 85.1816 207.916 81.9114 208.481 78.5682L206.509 78.235ZM200.039 96.6368C198.487 99.4754 196.708 102.225 194.72 104.872L196.32 106.072C198.362 103.352 200.194 100.522 201.794 97.5959L200.039 96.6368ZM188.318 112.327C186.054 114.65 183.619 116.868 181.033 118.97L182.295 120.522C184.938 118.373 187.43 116.103 189.75 113.723L188.318 112.327ZM173.076 124.762C170.352 126.536 167.507 128.195 164.559 129.729L165.482 131.504C168.487 129.94 171.388 128.248 174.167 126.437L173.076 124.762ZM155.597 133.874C152.572 135.107 149.465 136.216 146.29 137.192L146.877 139.104C150.109 138.111 153.272 136.982 156.352 135.725L155.597 133.874ZM136.739 139.674C133.54 140.359 130.292 140.909 127.006 141.318L127.253 143.302C130.597 142.887 133.903 142.327 137.158 141.63L136.739 139.674ZM117.165 142.107C113.893 142.225 110.598 142.2 107.293 142.025L107.187 144.022C110.552 144.201 113.907 144.226 117.238 144.105L117.165 142.107ZM97.4686 141.058C94.2307 140.59 90.9954 139.971 87.7741 139.195L87.3057 141.139C90.588 141.93 93.8842 142.56 97.1823 143.037L97.4686 141.058ZM78.3018 136.436C75.2206 135.379 72.1631 134.168 69.14 132.797L68.3142 134.619C71.3957 136.016 74.5122 137.25 77.6526 138.328L78.3018 136.436ZM60.3652 128.305C57.5506 126.691 54.7765 124.925 52.052 123.003L50.8991 124.638C53.6748 126.596 56.5017 128.395 59.3703 130.04L60.3652 128.305ZM44.2619 116.954C41.8005 114.856 39.3906 112.616 37.0397 110.227L35.6143 111.63C38.0059 114.06 40.4587 116.34 42.9648 118.476L44.2619 116.954ZM30.4114 102.901C28.3434 100.418 26.3325 97.8028 24.3848 95.0529L22.7527 96.2089C24.7301 99.0006 26.7727 101.657 28.8744 104.181L30.4114 102.901ZM18.9572 86.7596C17.2953 84.0099 15.6908 81.1447 14.1487 78.1613L12.372 79.0797C13.9341 82.1018 15.5602 85.0057 17.2456 87.7942L18.9572 86.7596ZM9.89351 69.2616C9.2228 67.7426 8.56704 66.1966 7.9267 64.6232L6.07423 65.3771C6.72185 66.9684 7.38524 68.5324 8.06392 70.0695L9.89351 69.2616Z" fill="white"/>
</svg>
